<svg width="32" height="32" viewBox="0 0 32 32" fill="none" xmlns="http://www.w3.org/2000/svg">
<rect width="32" height="32" rx="16" fill="url(#paint0_linear_280_1016)"/>
<path d="M18.3333 13.6667C19.2615 13.6667 20.1517 14.0354 20.8081 14.6918C21.4645 15.3482 21.8333 16.2384 21.8333 17.1667V21.25H19.4999V17.1667C19.4999 16.8573 19.377 16.5605 19.1582 16.3417C18.9394 16.1229 18.6427 16 18.3333 16C18.0238 16 17.7271 16.1229 17.5083 16.3417C17.2895 16.5605 17.1666 16.8573 17.1666 17.1667V21.25H14.8333V17.1667C14.8333 16.2384 15.202 15.3482 15.8584 14.6918C16.5148 14.0354 17.405 13.6667 18.3333 13.6667Z" fill="white"/>
<path d="M12.5001 14.25H10.1667V21.25H12.5001V14.25Z" fill="white"/>
<path d="M11.3334 12.5C11.9777 12.5 12.5001 11.9777 12.5001 11.3334C12.5001 10.689 11.9777 10.1667 11.3334 10.1667C10.6891 10.1667 10.1667 10.689 10.1667 11.3334C10.1667 11.9777 10.6891 12.5 11.3334 12.5Z" fill="white"/>
<defs>
<linearGradient id="paint0_linear_280_1016" x1="16" y1="0" x2="16" y2="32" gradientUnits="userSpaceOnUse">
<stop stop-color="#0D2746"/>
<stop offset="1" stop-color="#1F5FAC"/>
</linearGradient>
</defs>
</svg>
