<svg width="32" height="32" viewBox="0 0 32 32" fill="none" xmlns="http://www.w3.org/2000/svg">
<rect width="32" height="32" rx="16" fill="url(#paint0_linear_280_1013)"/>
<path d="M22.4167 10.75C21.8581 11.144 21.2396 11.4454 20.585 11.6425C20.2337 11.2386 19.7668 10.9522 19.2475 10.8223C18.7281 10.6923 18.1814 10.725 17.6813 10.9159C17.1811 11.1068 16.7516 11.4467 16.4509 11.8897C16.1503 12.3326 15.9929 12.8572 16 13.3925V13.9758C14.9749 14.0024 13.9591 13.7751 13.0431 13.314C12.1271 12.853 11.3394 12.1725 10.75 11.3333C10.75 11.3333 8.41671 16.5833 13.6667 18.9167C12.4653 19.7322 11.0342 20.141 9.58337 20.0833C14.8334 23 21.25 20.0833 21.25 13.375C21.2495 13.2125 21.2339 13.0504 21.2034 12.8908C21.7987 12.3037 22.2189 11.5624 22.4167 10.75Z" fill="white"/>
<defs>
<linearGradient id="paint0_linear_280_1013" x1="16" y1="0" x2="16" y2="32" gradientUnits="userSpaceOnUse">
<stop stop-color="#0D2746"/>
<stop offset="1" stop-color="#1F5FAC"/>
</linearGradient>
</defs>
</svg>
