<svg width="28" height="28" viewBox="0 0 28 28" fill="none" xmlns="http://www.w3.org/2000/svg">
<g clip-path="url(#clip0_115_4484)">
<path d="M13.9327 26.7618C21.0185 26.7618 26.7628 21.0176 26.7628 13.9317C26.7628 6.84581 21.0185 1.10156 13.9327 1.10156C6.84678 1.10156 1.10254 6.84581 1.10254 13.9317C1.10254 21.0176 6.84678 26.7618 13.9327 26.7618Z" fill="#1B3266"/>
<path fill-rule="evenodd" clip-rule="evenodd" d="M8.81362 13.0307C8.34112 12.7152 7.70994 12.7869 7.31911 13.1999C6.92886 13.6123 6.89211 14.247 7.23336 14.7014L10.7334 19.3681C10.9445 19.6493 11.2712 19.8207 11.6229 19.8342C11.9741 19.847 12.313 19.7012 12.5446 19.4363L20.7113 10.103C21.1144 9.64274 21.0928 8.94916 20.6623 8.51399C20.2318 8.07882 19.5388 8.05082 19.0739 8.44866L11.5786 14.8735L8.81362 13.0307Z" fill="white"/>
<path fill-rule="evenodd" clip-rule="evenodd" d="M13.9327 0.519531C6.52939 0.519531 0.519531 6.52939 0.519531 13.9327C0.519531 21.336 6.52939 27.3458 13.9327 27.3458C21.336 27.3458 27.3458 21.336 27.3458 13.9327C27.3458 6.52939 21.336 0.519531 13.9327 0.519531ZM13.9327 1.68557C20.6921 1.68557 26.1798 7.17329 26.1798 13.9327C26.1798 20.6921 20.6921 26.1798 13.9327 26.1798C7.17329 26.1798 1.68557 20.6921 1.68557 13.9327C1.68557 7.17329 7.17329 1.68557 13.9327 1.68557Z" fill="#1B3266"/>
<path fill-rule="evenodd" clip-rule="evenodd" d="M9.13775 12.5428C8.42841 12.0697 7.48167 12.177 6.896 12.796C6.30975 13.4155 6.2555 14.3669 6.76708 15.0488L10.2671 19.7155C10.5838 20.1378 11.0738 20.3945 11.6012 20.4143C12.1285 20.4341 12.6366 20.2148 12.9842 19.8181L21.1509 10.4848C21.7552 9.79355 21.7232 8.75347 21.0774 8.1013C20.4317 7.44855 19.3916 7.40595 18.6951 8.00329L11.5347 14.1406L9.13775 12.5428ZM8.49082 13.5135L11.2552 15.3568C11.4728 15.5015 11.7598 15.484 11.9587 15.3142L19.454 8.88938C19.6862 8.68988 20.0332 8.70446 20.2485 8.92204C20.4637 9.13904 20.4742 9.48613 20.273 9.71654L12.1063 19.0499C11.9902 19.1817 11.8211 19.2552 11.6449 19.2482C11.4693 19.2418 11.306 19.156 11.2004 19.0155L7.70042 14.3488C7.53009 14.1213 7.54815 13.8045 7.74357 13.598C7.9384 13.3915 8.25399 13.356 8.49082 13.5135Z" fill="#1B3266"/>
</g>
<defs>
<clipPath id="clip0_115_4484">
<rect width="28" height="28" fill="white"/>
</clipPath>
</defs>
</svg>
